<svg width="29" height="18" viewBox="0 0 29 18" fill="none" xmlns="http://www.w3.org/2000/svg">
<path d="M8.26172 17.3867C8.14453 17.5039 7.96875 17.5625 7.73438 17.5625C7.5 17.5625 7.32422 17.5039 7.20703 17.3867C2.57812 12.2891 0.234375 9.71094 0.175781 9.65234C0.0585937 9.53516 0 9.35938 0 9.125C0 8.89062 0.0585937 8.71484 0.175781 8.59766L7.20703 0.863281C7.55859 0.511719 7.91016 0.511719 8.26172 0.863281C8.61328 1.21484 8.61328 1.56641 8.26172 1.91797L2.37305 8.42188H27.4219C27.8906 8.42188 28.125 8.65625 28.125 9.125C28.125 9.59375 27.8906 9.82812 27.4219 9.82812H2.37305L8.26172 16.332C8.61328 16.6836 8.61328 17.0352 8.26172 17.3867Z" fill="#404040" fill-opacity="0.25"/>
</svg>
