<svg width="29" height="18" viewBox="0 0 29 18" fill="none" xmlns="http://www.w3.org/2000/svg">
<path d="M19.8633 17.3867C19.5117 17.0352 19.5117 16.6836 19.8633 16.332L25.752 9.82812H0.703125C0.234375 9.82812 0 9.59375 0 9.125C0 8.65625 0.234375 8.42188 0.703125 8.42188H25.752L19.8633 1.91797C19.5117 1.56641 19.5117 1.21484 19.8633 0.863281C20.2148 0.511719 20.5664 0.511719 20.918 0.863281C25.5469 5.96094 27.8906 8.53906 27.9492 8.59766C28.0664 8.71484 28.125 8.89062 28.125 9.125C28.125 9.35938 28.0664 9.53516 27.9492 9.65234L20.918 17.3867C20.8008 17.5039 20.625 17.5625 20.3906 17.5625C20.1562 17.5625 19.9805 17.5039 19.8633 17.3867Z" fill="#404040"/>
</svg>
