<svg width="8" height="9" viewBox="0 0 8 9" fill="none" xmlns="http://www.w3.org/2000/svg">
<path d="M1.31445 8.18945L6.5 3.01367V5.25C6.5 5.42578 6.55859 5.57552 6.67578 5.69922C6.79948 5.81641 6.94922 5.875 7.125 5.875C7.30078 5.875 7.44727 5.81641 7.56445 5.69922C7.68815 5.57552 7.75 5.42578 7.75 5.25V1.5C7.75 1.3763 7.71419 1.26237 7.64258 1.1582C7.57096 1.04753 7.47656 0.969401 7.35938 0.923828C7.32682 0.904297 7.28776 0.891276 7.24219 0.884766C7.20312 0.878255 7.16406 0.875 7.125 0.875H3.375C3.19922 0.875 3.04948 0.936849 2.92578 1.06055C2.80859 1.17773 2.75 1.32422 2.75 1.5C2.75 1.67578 2.80859 1.82552 2.92578 1.94922C3.04948 2.06641 3.19922 2.125 3.375 2.125H5.61133L0.435547 7.31055C0.370443 7.36914 0.321615 7.4375 0.289062 7.51562C0.263021 7.59375 0.25 7.67188 0.25 7.75C0.25 7.82812 0.263021 7.90625 0.289062 7.98438C0.321615 8.0625 0.370443 8.13086 0.435547 8.18945C0.552734 8.31315 0.699219 8.375 0.875 8.375C1.05078 8.375 1.19727 8.31315 1.31445 8.18945Z" fill="#3F3F3F"/>
</svg>
