<svg width="627" height="336" viewBox="0 0 627 336" fill="none" xmlns="http://www.w3.org/2000/svg">
<path d="M2.704 11.728L3.216 10.128C3.584 8.96 3.92 7.808 4.256 6.592H4.32C4.656 7.808 4.992 8.96 5.36 10.128L5.856 11.728H2.704ZM7.2 16H8.608L5.056 5.504H3.552L0 16H1.36L2.368 12.8H6.192L7.2 16ZM9.76137 12.128C9.76137 14.72 11.0254 16.192 12.9774 16.192C13.8894 16.192 14.7214 15.68 15.3294 15.088H15.3774L15.4894 16H16.5774V4.608H15.2494V7.6L15.3134 8.928C14.6254 8.368 14.0334 8.032 13.1374 8.032C11.3614 8.032 9.76137 9.6 9.76137 12.128ZM11.1214 12.112C11.1214 10.336 12.1134 9.136 13.3614 9.136C14.0014 9.136 14.5934 9.36 15.2494 9.952V14.016C14.6094 14.736 13.9854 15.088 13.2654 15.088C11.9054 15.088 11.1214 13.968 11.1214 12.112ZM19.0204 12.128C19.0204 14.704 20.7164 16.192 22.6204 16.192C24.5244 16.192 26.2204 14.704 26.2204 12.128C26.2204 9.52 24.5244 8.032 22.6204 8.032C20.7164 8.032 19.0204 9.52 19.0204 12.128ZM20.3804 12.128C20.3804 10.336 21.2924 9.12 22.6204 9.12C23.9644 9.12 24.8604 10.336 24.8604 12.128C24.8604 13.904 23.9644 15.104 22.6204 15.104C21.2924 15.104 20.3804 13.904 20.3804 12.128ZM28.6683 16H29.7243L29.8363 15.232H29.8843C30.5723 15.84 31.3883 16.192 32.1083 16.192C33.8843 16.192 35.4683 14.64 35.4683 11.984C35.4683 9.584 34.3963 8.032 32.3803 8.032C31.5163 8.032 30.6523 8.496 29.9483 9.12L29.9803 7.712V4.608H28.6683V16ZM29.9803 14.272V10.192C30.7163 9.504 31.4043 9.136 32.0603 9.136C33.5323 9.136 34.1083 10.288 34.1083 12C34.1083 13.92 33.1643 15.088 31.8843 15.088C31.3723 15.088 30.6683 14.864 29.9803 14.272ZM37.3672 12.128C37.3672 14.672 39.0152 16.192 41.0952 16.192C42.1512 16.192 42.9832 15.824 43.6552 15.392L43.1912 14.528C42.6152 14.896 41.9912 15.136 41.2552 15.136C39.7672 15.136 38.7592 14.08 38.6632 12.4H43.9112C43.9432 12.208 43.9592 11.952 43.9592 11.68C43.9592 9.456 42.8392 8.032 40.8552 8.032C39.0792 8.032 37.3672 9.584 37.3672 12.128ZM38.6472 11.536C38.8072 9.968 39.7992 9.072 40.8872 9.072C42.1032 9.072 42.8072 9.952 42.8072 11.536H38.6472ZM49.9951 16H51.3391V11.84H53.2271C55.5151 11.84 57.0991 10.8 57.0991 8.592C57.0991 6.288 55.5471 5.504 53.2271 5.504H49.9951V16ZM51.3391 10.752V6.576H53.0511C54.8591 6.576 55.7711 7.072 55.7711 8.592C55.7711 10.08 54.8911 10.752 53.0511 10.752H51.3391ZM59.4557 16H60.7677V10.368C61.5517 9.584 62.0957 9.168 62.8957 9.168C63.9197 9.168 64.3677 9.792 64.3677 11.248V16H65.6797V11.072C65.6797 9.088 64.9437 8.032 63.3117 8.032C62.2397 8.032 61.4557 8.608 60.7197 9.312L60.7677 7.712V4.608H59.4557V16ZM67.9829 12.128C67.9829 14.704 69.6789 16.192 71.5829 16.192C73.4869 16.192 75.1829 14.704 75.1829 12.128C75.1829 9.52 73.4869 8.032 71.5829 8.032C69.6789 8.032 67.9829 9.52 67.9829 12.128ZM69.3429 12.128C69.3429 10.336 70.2549 9.12 71.5829 9.12C72.9269 9.12 73.8229 10.336 73.8229 12.128C73.8229 13.904 72.9269 15.104 71.5829 15.104C70.2549 15.104 69.3429 13.904 69.3429 12.128ZM77.8547 13.6C77.8547 15.136 78.4147 16.192 80.0787 16.192C80.5587 16.192 81.0867 16.048 81.5187 15.904L81.2627 14.912C81.0067 15.008 80.6547 15.12 80.3827 15.12C79.4867 15.12 79.1827 14.576 79.1827 13.616V9.296H81.2787V8.224H79.1827V6.048H78.0787L77.9187 8.224L76.7027 8.304V9.296H77.8547V13.6ZM82.7048 12.128C82.7048 14.704 84.4008 16.192 86.3048 16.192C88.2088 16.192 89.9048 14.704 89.9048 12.128C89.9048 9.52 88.2088 8.032 86.3048 8.032C84.4008 8.032 82.7048 9.52 82.7048 12.128ZM84.0648 12.128C84.0648 10.336 84.9768 9.12 86.3048 9.12C87.6488 9.12 88.5448 10.336 88.5448 12.128C88.5448 13.904 87.6488 15.104 86.3048 15.104C84.9768 15.104 84.0648 13.904 84.0648 12.128ZM91.4886 15.12C92.2246 15.728 93.2806 16.192 94.3846 16.192C96.2246 16.192 97.2326 15.136 97.2326 13.872C97.2326 12.4 95.9846 11.936 94.8646 11.52C93.9846 11.184 93.1366 10.896 93.1366 10.176C93.1366 9.584 93.5846 9.056 94.5606 9.056C95.2486 9.056 95.8086 9.344 96.3366 9.744L96.9606 8.912C96.3686 8.432 95.5206 8.032 94.5446 8.032C92.8646 8.032 91.8726 8.992 91.8726 10.24C91.8726 11.552 93.0886 12.08 94.1926 12.48C95.0406 12.8 95.9686 13.152 95.9686 13.952C95.9686 14.624 95.4566 15.168 94.4326 15.168C93.5046 15.168 92.8166 14.784 92.1446 14.24L91.4886 15.12ZM99.4558 16H100.768V10.368C101.552 9.584 102.096 9.168 102.896 9.168C103.92 9.168 104.368 9.792 104.368 11.248V16H105.68V11.072C105.68 9.088 104.944 8.032 103.312 8.032C102.24 8.032 101.456 8.608 100.72 9.312L100.768 7.712V4.608H99.4558V16ZM107.983 12.128C107.983 14.704 109.679 16.192 111.583 16.192C113.487 16.192 115.183 14.704 115.183 12.128C115.183 9.52 113.487 8.032 111.583 8.032C109.679 8.032 107.983 9.52 107.983 12.128ZM109.343 12.128C109.343 10.336 110.255 9.12 111.583 9.12C112.927 9.12 113.823 10.336 113.823 12.128C113.823 13.904 112.927 15.104 111.583 15.104C110.255 15.104 109.343 13.904 109.343 12.128ZM118.911 15.296C119.631 15.856 120.351 16.192 121.071 16.192C122.847 16.192 124.431 14.64 124.431 12C124.431 9.584 123.359 8.032 121.359 8.032C120.447 8.032 119.583 8.528 118.879 9.12H118.831L118.719 8.224H117.631V19.28H118.943V16.656L118.911 15.296ZM118.943 14.272V10.192C119.711 9.504 120.367 9.136 121.023 9.136C122.495 9.136 123.071 10.288 123.071 12C123.071 13.92 122.127 15.088 120.847 15.088C120.335 15.088 119.647 14.864 118.943 14.272Z" fill="#252525"/>
<path d="M2.704 109.728L3.216 108.128C3.584 106.96 3.92 105.808 4.256 104.592H4.32C4.656 105.808 4.992 106.96 5.36 108.128L5.856 109.728H2.704ZM7.2 114H8.608L5.056 103.504H3.552L0 114H1.36L2.368 110.8H6.192L7.2 114ZM9.76137 110.128C9.76137 112.72 11.0254 114.192 12.9774 114.192C13.8894 114.192 14.7214 113.68 15.3294 113.088H15.3774L15.4894 114H16.5774V102.608H15.2494V105.6L15.3134 106.928C14.6254 106.368 14.0334 106.032 13.1374 106.032C11.3614 106.032 9.76137 107.6 9.76137 110.128ZM11.1214 110.112C11.1214 108.336 12.1134 107.136 13.3614 107.136C14.0014 107.136 14.5934 107.36 15.2494 107.952V112.016C14.6094 112.736 13.9854 113.088 13.2654 113.088C11.9054 113.088 11.1214 111.968 11.1214 110.112ZM19.0204 110.128C19.0204 112.704 20.7164 114.192 22.6204 114.192C24.5244 114.192 26.2204 112.704 26.2204 110.128C26.2204 107.52 24.5244 106.032 22.6204 106.032C20.7164 106.032 19.0204 107.52 19.0204 110.128ZM20.3804 110.128C20.3804 108.336 21.2924 107.12 22.6204 107.12C23.9644 107.12 24.8604 108.336 24.8604 110.128C24.8604 111.904 23.9644 113.104 22.6204 113.104C21.2924 113.104 20.3804 111.904 20.3804 110.128ZM28.6683 114H29.7243L29.8363 113.232H29.8843C30.5723 113.84 31.3883 114.192 32.1083 114.192C33.8843 114.192 35.4683 112.64 35.4683 109.984C35.4683 107.584 34.3963 106.032 32.3803 106.032C31.5163 106.032 30.6523 106.496 29.9483 107.12L29.9803 105.712V102.608H28.6683V114ZM29.9803 112.272V108.192C30.7163 107.504 31.4043 107.136 32.0603 107.136C33.5323 107.136 34.1083 108.288 34.1083 110C34.1083 111.92 33.1643 113.088 31.8843 113.088C31.3723 113.088 30.6683 112.864 29.9803 112.272ZM37.3672 110.128C37.3672 112.672 39.0152 114.192 41.0952 114.192C42.1512 114.192 42.9832 113.824 43.6552 113.392L43.1912 112.528C42.6152 112.896 41.9912 113.136 41.2552 113.136C39.7672 113.136 38.7592 112.08 38.6632 110.4H43.9112C43.9432 110.208 43.9592 109.952 43.9592 109.68C43.9592 107.456 42.8392 106.032 40.8552 106.032C39.0792 106.032 37.3672 107.584 37.3672 110.128ZM38.6472 109.536C38.8072 107.968 39.7992 107.072 40.8872 107.072C42.1032 107.072 42.8072 107.952 42.8072 109.536H38.6472ZM49.9951 114H51.3391V103.504H49.9951V114ZM54.4401 112.432C54.4401 113.568 54.8401 114.192 55.8321 114.192C56.1841 114.192 56.4081 114.144 56.5841 114.064L56.4081 113.072C56.2641 113.104 56.2001 113.104 56.1201 113.104C55.9281 113.104 55.7521 112.944 55.7521 112.528V102.608H54.4401V112.432ZM58.9183 112.432C58.9183 113.568 59.3183 114.192 60.3103 114.192C60.6623 114.192 60.8863 114.144 61.0623 114.064L60.8863 113.072C60.7423 113.104 60.6783 113.104 60.5983 113.104C60.4063 113.104 60.2303 112.944 60.2303 112.528V102.608H58.9183V112.432ZM63.2844 111.152C63.2844 113.136 64.0204 114.192 65.6684 114.192C66.7404 114.192 67.5084 113.632 68.2284 112.784H68.2764L68.3884 114H69.4764V106.224H68.1644V111.744C67.4284 112.656 66.8684 113.056 66.0684 113.056C65.0444 113.056 64.6124 112.432 64.6124 110.976V106.224H63.2844V111.152ZM71.6355 113.12C72.3715 113.728 73.4275 114.192 74.5315 114.192C76.3715 114.192 77.3795 113.136 77.3795 111.872C77.3795 110.4 76.1315 109.936 75.0115 109.52C74.1315 109.184 73.2835 108.896 73.2835 108.176C73.2835 107.584 73.7315 107.056 74.7075 107.056C75.3955 107.056 75.9555 107.344 76.4835 107.744L77.1075 106.912C76.5155 106.432 75.6675 106.032 74.6915 106.032C73.0115 106.032 72.0195 106.992 72.0195 108.24C72.0195 109.552 73.2355 110.08 74.3395 110.48C75.1875 110.8 76.1155 111.152 76.1155 111.952C76.1155 112.624 75.6035 113.168 74.5795 113.168C73.6515 113.168 72.9635 112.784 72.2915 112.24L71.6355 113.12ZM79.8266 111.6C79.8266 113.136 80.3866 114.192 82.0506 114.192C82.5306 114.192 83.0586 114.048 83.4906 113.904L83.2346 112.912C82.9786 113.008 82.6266 113.12 82.3546 113.12C81.4586 113.12 81.1546 112.576 81.1546 111.616V107.296H83.2506V106.224H81.1546V104.048H80.0506L79.8906 106.224L78.6746 106.304V107.296H79.8266V111.6ZM85.4089 114H86.7209V109.008C87.2489 107.696 88.0329 107.216 88.6889 107.216C89.0089 107.216 89.1849 107.264 89.4409 107.344L89.6969 106.192C89.4409 106.08 89.2009 106.032 88.8649 106.032C87.9849 106.032 87.1849 106.656 86.6569 107.632H86.6089L86.4969 106.224H85.4089V114ZM90.5655 111.984C90.5655 113.376 91.5415 114.192 92.8535 114.192C93.8135 114.192 94.6775 113.68 95.4295 113.072H95.4615L95.5735 114H96.6615V109.232C96.6615 107.296 95.8615 106.032 93.9575 106.032C92.7095 106.032 91.6215 106.576 90.9015 107.04L91.4295 107.952C92.0375 107.536 92.8375 107.12 93.7495 107.12C95.0135 107.12 95.3495 108.08 95.3495 109.072C92.0375 109.44 90.5655 110.288 90.5655 111.984ZM91.8615 111.888C91.8615 110.896 92.7415 110.256 95.3495 109.936V112.096C94.5975 112.768 93.9735 113.136 93.2215 113.136C92.4535 113.136 91.8615 112.768 91.8615 111.888ZM99.761 111.6C99.761 113.136 100.321 114.192 101.985 114.192C102.465 114.192 102.993 114.048 103.425 113.904L103.169 112.912C102.913 113.008 102.561 113.12 102.289 113.12C101.393 113.12 101.089 112.576 101.089 111.616V107.296H103.185V106.224H101.089V104.048H99.985L99.825 106.224L98.609 106.304V107.296H99.761V111.6ZM104.611 110.128C104.611 112.704 106.307 114.192 108.211 114.192C110.115 114.192 111.811 112.704 111.811 110.128C111.811 107.52 110.115 106.032 108.211 106.032C106.307 106.032 104.611 107.52 104.611 110.128ZM105.971 110.128C105.971 108.336 106.883 107.12 108.211 107.12C109.555 107.12 110.451 108.336 110.451 110.128C110.451 111.904 109.555 113.104 108.211 113.104C106.883 113.104 105.971 111.904 105.971 110.128ZM114.259 114H115.571V109.008C116.099 107.696 116.883 107.216 117.539 107.216C117.859 107.216 118.035 107.264 118.291 107.344L118.547 106.192C118.291 106.08 118.051 106.032 117.715 106.032C116.835 106.032 116.035 106.656 115.507 107.632H115.459L115.347 106.224H114.259V114Z" fill="#252525"/>
<path d="M2.704 207.728L3.216 206.128C3.584 204.96 3.92 203.808 4.256 202.592H4.32C4.656 203.808 4.992 204.96 5.36 206.128L5.856 207.728H2.704ZM7.2 212H8.608L5.056 201.504H3.552L0 212H1.36L2.368 208.8H6.192L7.2 212ZM9.76137 208.128C9.76137 210.72 11.0254 212.192 12.9774 212.192C13.8894 212.192 14.7214 211.68 15.3294 211.088H15.3774L15.4894 212H16.5774V200.608H15.2494V203.6L15.3134 204.928C14.6254 204.368 14.0334 204.032 13.1374 204.032C11.3614 204.032 9.76137 205.6 9.76137 208.128ZM11.1214 208.112C11.1214 206.336 12.1134 205.136 13.3614 205.136C14.0014 205.136 14.5934 205.36 15.2494 205.952V210.016C14.6094 210.736 13.9854 211.088 13.2654 211.088C11.9054 211.088 11.1214 209.968 11.1214 208.112ZM19.0204 208.128C19.0204 210.704 20.7164 212.192 22.6204 212.192C24.5244 212.192 26.2204 210.704 26.2204 208.128C26.2204 205.52 24.5244 204.032 22.6204 204.032C20.7164 204.032 19.0204 205.52 19.0204 208.128ZM20.3804 208.128C20.3804 206.336 21.2924 205.12 22.6204 205.12C23.9644 205.12 24.8604 206.336 24.8604 208.128C24.8604 209.904 23.9644 211.104 22.6204 211.104C21.2924 211.104 20.3804 209.904 20.3804 208.128ZM28.6683 212H29.7243L29.8363 211.232H29.8843C30.5723 211.84 31.3883 212.192 32.1083 212.192C33.8843 212.192 35.4683 210.64 35.4683 207.984C35.4683 205.584 34.3963 204.032 32.3803 204.032C31.5163 204.032 30.6523 204.496 29.9483 205.12L29.9803 203.712V200.608H28.6683V212ZM29.9803 210.272V206.192C30.7163 205.504 31.4043 205.136 32.0603 205.136C33.5323 205.136 34.1083 206.288 34.1083 208C34.1083 209.92 33.1643 211.088 31.8843 211.088C31.3723 211.088 30.6683 210.864 29.9803 210.272ZM37.3672 208.128C37.3672 210.672 39.0152 212.192 41.0952 212.192C42.1512 212.192 42.9832 211.824 43.6552 211.392L43.1912 210.528C42.6152 210.896 41.9912 211.136 41.2552 211.136C39.7672 211.136 38.7592 210.08 38.6632 208.4H43.9112C43.9432 208.208 43.9592 207.952 43.9592 207.68C43.9592 205.456 42.8392 204.032 40.8552 204.032C39.0792 204.032 37.3672 205.584 37.3672 208.128ZM38.6472 207.536C38.8072 205.968 39.7992 205.072 40.8872 205.072C42.1032 205.072 42.8072 205.952 42.8072 207.536H38.6472ZM51.3071 207.728L51.8191 206.128C52.1871 204.96 52.5231 203.808 52.8591 202.592H52.9231C53.2591 203.808 53.5951 204.96 53.9631 206.128L54.4591 207.728H51.3071ZM55.8031 212H57.2111L53.6591 201.504H52.1551L48.6031 212H49.9631L50.9711 208.8H54.7951L55.8031 212ZM66.4962 210.912C66.2402 211.008 65.8882 211.12 65.6163 211.12C64.7202 211.12 64.4002 210.576 64.4002 209.616V205.296H66.5122V204.224H64.4002V202.048H63.3122L63.1522 204.224H60.3042V202.992C60.3042 202 60.6562 201.488 61.3922 201.488C61.6802 201.488 61.9842 201.552 62.2722 201.68L62.5602 200.672C62.2082 200.528 61.7442 200.416 61.2642 200.416C59.7122 200.416 58.9922 201.408 58.9922 202.992V204.224L57.9362 204.304V205.296H58.9922V212H60.3042V205.296H63.0882V209.6C63.0882 211.136 63.6482 212.192 65.3122 212.192C65.7922 212.192 66.3202 212.048 66.7522 211.904L66.4962 210.912ZM67.936 208.128C67.936 210.672 69.584 212.192 71.664 212.192C72.72 212.192 73.552 211.824 74.224 211.392L73.76 210.528C73.184 210.896 72.56 211.136 71.824 211.136C70.336 211.136 69.328 210.08 69.232 208.4H74.48C74.512 208.208 74.528 207.952 74.528 207.68C74.528 205.456 73.408 204.032 71.424 204.032C69.648 204.032 67.936 205.584 67.936 208.128ZM69.216 207.536C69.376 205.968 70.368 205.072 71.456 205.072C72.672 205.072 73.376 205.952 73.376 207.536H69.216ZM76.8495 212H78.1615V207.008C78.6895 205.696 79.4735 205.216 80.1295 205.216C80.4495 205.216 80.6255 205.264 80.8815 205.344L81.1375 204.192C80.8815 204.08 80.6415 204.032 80.3055 204.032C79.4255 204.032 78.6255 204.656 78.0975 205.632H78.0495L77.9375 204.224H76.8495V212ZM86.5108 212H92.7188V210.864H87.8548V207.056H91.8228V205.92H87.8548V202.624H92.5588V201.504H86.5108V212ZM103.526 200.672C103.174 200.528 102.71 200.416 102.23 200.416C100.678 200.416 99.9581 201.408 99.9581 202.992V204.224H96.7261V203.232C96.7261 202.208 97.1741 201.648 97.9421 201.648C98.3261 201.648 98.6461 201.712 98.9821 201.856L99.2541 200.864C98.8701 200.688 98.3421 200.576 97.8301 200.576C96.2141 200.576 95.4141 201.584 95.4141 203.2V204.224L94.3581 204.304V205.296H95.4141V212H96.7261V205.296H99.9581V212H101.27V205.296H102.918V204.224H101.27V202.992C101.27 202 101.638 201.488 102.374 201.488C102.646 201.488 102.95 201.552 103.254 201.68L103.526 200.672ZM104.045 208.128C104.045 210.672 105.693 212.192 107.773 212.192C108.829 212.192 109.661 211.824 110.333 211.392L109.869 210.528C109.293 210.896 108.669 211.136 107.933 211.136C106.445 211.136 105.437 210.08 105.341 208.4H110.589C110.621 208.208 110.637 207.952 110.637 207.68C110.637 205.456 109.517 204.032 107.533 204.032C105.757 204.032 104.045 205.584 104.045 208.128ZM105.325 207.536C105.485 205.968 106.477 205.072 107.565 205.072C108.781 205.072 109.485 205.952 109.485 207.536H105.325ZM112.383 208.128C112.383 210.704 113.967 212.192 116.031 212.192C116.959 212.192 117.855 211.808 118.559 211.184L117.967 210.32C117.503 210.736 116.879 211.104 116.143 211.104C114.719 211.104 113.743 209.904 113.743 208.128C113.743 206.336 114.767 205.12 116.175 205.12C116.799 205.12 117.279 205.408 117.743 205.808L118.399 204.96C117.871 204.464 117.151 204.032 116.127 204.032C114.127 204.032 112.383 205.52 112.383 208.128ZM120.88 209.6C120.88 211.136 121.44 212.192 123.104 212.192C123.584 212.192 124.112 212.048 124.544 211.904L124.288 210.912C124.032 211.008 123.68 211.12 123.408 211.12C122.512 211.12 122.208 210.576 122.208 209.616V205.296H124.304V204.224H122.208V202.048H121.104L120.944 204.224L119.728 204.304V205.296H120.88V209.6Z" fill="#252525"/>
<path d="M2.704 305.728L3.216 304.128C3.584 302.96 3.92 301.808 4.256 300.592H4.32C4.656 301.808 4.992 302.96 5.36 304.128L5.856 305.728H2.704ZM7.2 310H8.608L5.056 299.504H3.552L0 310H1.36L2.368 306.8H6.192L7.2 310ZM9.76137 306.128C9.76137 308.72 11.0254 310.192 12.9774 310.192C13.8894 310.192 14.7214 309.68 15.3294 309.088H15.3774L15.4894 310H16.5774V298.608H15.2494V301.6L15.3134 302.928C14.6254 302.368 14.0334 302.032 13.1374 302.032C11.3614 302.032 9.76137 303.6 9.76137 306.128ZM11.1214 306.112C11.1214 304.336 12.1134 303.136 13.3614 303.136C14.0014 303.136 14.5934 303.36 15.2494 303.952V308.016C14.6094 308.736 13.9854 309.088 13.2654 309.088C11.9054 309.088 11.1214 307.968 11.1214 306.112ZM19.0204 306.128C19.0204 308.704 20.7164 310.192 22.6204 310.192C24.5244 310.192 26.2204 308.704 26.2204 306.128C26.2204 303.52 24.5244 302.032 22.6204 302.032C20.7164 302.032 19.0204 303.52 19.0204 306.128ZM20.3804 306.128C20.3804 304.336 21.2924 303.12 22.6204 303.12C23.9644 303.12 24.8604 304.336 24.8604 306.128C24.8604 307.904 23.9644 309.104 22.6204 309.104C21.2924 309.104 20.3804 307.904 20.3804 306.128ZM28.6683 310H29.7243L29.8363 309.232H29.8843C30.5723 309.84 31.3883 310.192 32.1083 310.192C33.8843 310.192 35.4683 308.64 35.4683 305.984C35.4683 303.584 34.3963 302.032 32.3803 302.032C31.5163 302.032 30.6523 302.496 29.9483 303.12L29.9803 301.712V298.608H28.6683V310ZM29.9803 308.272V304.192C30.7163 303.504 31.4043 303.136 32.0603 303.136C33.5323 303.136 34.1083 304.288 34.1083 306C34.1083 307.92 33.1643 309.088 31.8843 309.088C31.3723 309.088 30.6683 308.864 29.9803 308.272ZM37.3672 306.128C37.3672 308.672 39.0152 310.192 41.0952 310.192C42.1512 310.192 42.9832 309.824 43.6552 309.392L43.1912 308.528C42.6152 308.896 41.9912 309.136 41.2552 309.136C39.7672 309.136 38.7592 308.08 38.6632 306.4H43.9112C43.9432 306.208 43.9592 305.952 43.9592 305.68C43.9592 303.456 42.8392 302.032 40.8552 302.032C39.0792 302.032 37.3672 303.584 37.3672 306.128ZM38.6472 305.536C38.8072 303.968 39.7992 303.072 40.8872 303.072C42.1032 303.072 42.8072 303.952 42.8072 305.536H38.6472ZM49.9951 310H51.3391V299.504H49.9951V310ZM54.4401 310H55.7521V304.368C56.5361 303.584 57.0801 303.168 57.8801 303.168C58.9041 303.168 59.3521 303.792 59.3521 305.248V310H60.6641V305.072C60.6641 303.088 59.9281 302.032 58.2961 302.032C57.2241 302.032 56.4241 302.608 55.6881 303.344H55.6401L55.5281 302.224H54.4401V310ZM63.6701 310H66.3581C69.5261 310 71.2541 308.048 71.2541 304.704C71.2541 301.376 69.5261 299.504 66.2941 299.504H63.6701V310ZM65.0141 308.912V300.592H66.1981C68.6621 300.592 69.8781 302.064 69.8781 304.704C69.8781 307.36 68.6621 308.912 66.1981 308.912H65.0141ZM73.211 306.128C73.211 308.672 74.859 310.192 76.939 310.192C77.995 310.192 78.827 309.824 79.499 309.392L79.035 308.528C78.459 308.896 77.835 309.136 77.099 309.136C75.611 309.136 74.603 308.08 74.507 306.4H79.755C79.787 306.208 79.803 305.952 79.803 305.68C79.803 303.456 78.683 302.032 76.699 302.032C74.923 302.032 73.211 303.584 73.211 306.128ZM74.491 305.536C74.651 303.968 75.643 303.072 76.731 303.072C77.947 303.072 78.651 303.952 78.651 305.536H74.491ZM81.2605 309.12C81.9965 309.728 83.0525 310.192 84.1565 310.192C85.9965 310.192 87.0045 309.136 87.0045 307.872C87.0045 306.4 85.7565 305.936 84.6365 305.52C83.7565 305.184 82.9085 304.896 82.9085 304.176C82.9085 303.584 83.3565 303.056 84.3325 303.056C85.0205 303.056 85.5805 303.344 86.1085 303.744L86.7325 302.912C86.1405 302.432 85.2925 302.032 84.3165 302.032C82.6365 302.032 81.6445 302.992 81.6445 304.24C81.6445 305.552 82.8605 306.08 83.9645 306.48C84.8125 306.8 85.7405 307.152 85.7405 307.952C85.7405 308.624 85.2285 309.168 84.2045 309.168C83.2765 309.168 82.5885 308.784 81.9165 308.24L81.2605 309.12ZM89.8996 300.624C90.4116 300.624 90.8116 300.272 90.8116 299.776C90.8116 299.264 90.4116 298.928 89.8996 298.928C89.3876 298.928 88.9876 299.264 88.9876 299.776C88.9876 300.272 89.3876 300.624 89.8996 300.624ZM89.2276 310H90.5396V302.224H89.2276V310ZM94.1251 311.312C94.1251 310.864 94.3651 310.4 94.9251 310C95.2611 310.096 95.6291 310.128 95.9331 310.128H97.2771C98.2851 310.128 98.8451 310.368 98.8451 311.088C98.8451 311.904 97.8691 312.672 96.3811 312.672C94.9731 312.672 94.1251 312.144 94.1251 311.312ZM92.9731 311.488C92.9731 312.832 94.2851 313.584 96.1891 313.584C98.6051 313.584 100.125 312.336 100.125 310.896C100.125 309.6 99.2131 309.04 97.4051 309.04H95.9011C94.8451 309.04 94.5251 308.688 94.5251 308.192C94.5251 307.76 94.7491 307.504 95.0211 307.264C95.3731 307.44 95.8051 307.536 96.1891 307.536C97.7731 307.536 99.0371 306.496 99.0371 304.832C99.0371 304.176 98.7651 303.584 98.3971 303.232H99.9971V302.224H97.2931C97.0051 302.112 96.6211 302.032 96.1891 302.032C94.6051 302.032 93.2611 303.104 93.2611 304.8C93.2611 305.728 93.7571 306.48 94.2691 306.896V306.96C93.8691 307.232 93.4211 307.744 93.4211 308.4C93.4211 309.008 93.7251 309.424 94.1091 309.664V309.728C93.4051 310.208 92.9731 310.832 92.9731 311.488ZM96.1891 306.656C95.2931 306.656 94.5411 305.936 94.5411 304.8C94.5411 303.664 95.2771 302.992 96.1891 302.992C97.1011 302.992 97.8371 303.664 97.8371 304.8C97.8371 305.936 97.0851 306.656 96.1891 306.656ZM102.028 310H103.34V304.368C104.124 303.584 104.668 303.168 105.468 303.168C106.492 303.168 106.94 303.792 106.94 305.248V310H108.252V305.072C108.252 303.088 107.516 302.032 105.884 302.032C104.812 302.032 104.012 302.608 103.276 303.344H103.228L103.116 302.224H102.028V310Z" fill="#252525"/>
<path d="M589.76 11.04C588.496 11.04 587.872 10.208 587.872 8.88C587.872 7.536 588.656 6.64 589.648 6.64C590.944 6.64 591.728 7.696 591.904 9.68C591.216 10.656 590.416 11.04 589.76 11.04ZM586.816 15.12C587.376 15.728 588.192 16.192 589.28 16.192C591.312 16.192 593.168 14.608 593.168 10.512C593.168 7.232 591.664 5.6 589.648 5.6C588.016 5.6 586.64 6.928 586.64 8.88C586.64 10.976 587.776 12.032 589.536 12.032C590.384 12.032 591.296 11.536 591.936 10.72C591.888 13.984 590.672 15.104 589.232 15.104C588.592 15.104 587.968 14.784 587.552 14.288L586.816 15.12ZM598.641 15.152C597.345 15.152 596.561 14.08 596.401 12.096C597.089 11.136 597.889 10.752 598.529 10.752C599.793 10.752 600.417 11.584 600.417 12.912C600.417 14.256 599.649 15.152 598.641 15.152ZM601.473 6.688C600.897 6.064 600.113 5.6 599.009 5.6C596.977 5.6 595.121 7.184 595.121 11.28C595.121 14.56 596.641 16.192 598.641 16.192C600.289 16.192 601.665 14.864 601.665 12.912C601.665 10.816 600.513 9.76 598.753 9.76C597.921 9.76 597.009 10.256 596.369 11.04C596.433 7.808 597.633 6.704 599.057 6.704C599.697 6.704 600.321 7.008 600.737 7.504L601.473 6.688ZM605.65 11.936C607.074 11.936 608.034 10.72 608.034 8.608C608.034 6.496 607.074 5.312 605.65 5.312C604.21 5.312 603.266 6.496 603.266 8.608C603.266 10.72 604.21 11.936 605.65 11.936ZM605.65 11.12C604.818 11.12 604.258 10.272 604.258 8.608C604.258 6.928 604.818 6.128 605.65 6.128C606.466 6.128 607.026 6.928 607.026 8.608C607.026 10.272 606.466 11.12 605.65 11.12ZM606.834 16.192L612.626 5.312H611.746L605.954 16.192H606.834ZM612.962 16.192C614.386 16.192 615.346 14.992 615.346 12.864C615.346 10.768 614.386 9.568 612.962 9.568C611.522 9.568 610.578 10.768 610.578 12.864C610.578 14.992 611.522 16.192 612.962 16.192ZM612.962 15.376C612.146 15.376 611.57 14.528 611.57 12.864C611.57 11.2 612.146 10.384 612.962 10.384C613.778 10.384 614.338 11.2 614.338 12.864C614.338 14.528 613.778 15.376 612.962 15.376Z" fill="#252525"/>
<path d="M563.76 109.04C562.496 109.04 561.872 108.208 561.872 106.88C561.872 105.536 562.656 104.64 563.648 104.64C564.944 104.64 565.728 105.696 565.904 107.68C565.216 108.656 564.416 109.04 563.76 109.04ZM560.816 113.12C561.376 113.728 562.192 114.192 563.28 114.192C565.312 114.192 567.168 112.608 567.168 108.512C567.168 105.232 565.664 103.6 563.648 103.6C562.016 103.6 560.64 104.928 560.64 106.88C560.64 108.976 561.776 110.032 563.536 110.032C564.384 110.032 565.296 109.536 565.936 108.72C565.888 111.984 564.672 113.104 563.232 113.104C562.592 113.104 561.968 112.784 561.552 112.288L560.816 113.12ZM568.993 114H575.585V112.864H572.625C572.097 112.864 571.473 112.912 570.913 112.96C573.329 110.432 575.073 108.528 575.073 106.608C575.073 104.8 573.905 103.6 572.017 103.6C570.689 103.6 569.777 104.224 568.929 105.152L569.681 105.904C570.273 105.216 571.009 104.672 571.857 104.672C573.153 104.672 573.793 105.504 573.793 106.672C573.793 108.32 572.065 110.16 568.993 113.216V114ZM579.65 109.936C581.074 109.936 582.034 108.72 582.034 106.608C582.034 104.496 581.074 103.312 579.65 103.312C578.21 103.312 577.266 104.496 577.266 106.608C577.266 108.72 578.21 109.936 579.65 109.936ZM579.65 109.12C578.818 109.12 578.258 108.272 578.258 106.608C578.258 104.928 578.818 104.128 579.65 104.128C580.466 104.128 581.026 104.928 581.026 106.608C581.026 108.272 580.466 109.12 579.65 109.12ZM580.834 114.192L586.626 103.312H585.746L579.954 114.192H580.834ZM586.962 114.192C588.386 114.192 589.346 112.992 589.346 110.864C589.346 108.768 588.386 107.568 586.962 107.568C585.522 107.568 584.578 108.768 584.578 110.864C584.578 112.992 585.522 114.192 586.962 114.192ZM586.962 113.376C586.146 113.376 585.57 112.528 585.57 110.864C585.57 109.2 586.146 108.384 586.962 108.384C587.778 108.384 588.338 109.2 588.338 110.864C588.338 112.528 587.778 113.376 586.962 113.376Z" fill="#252525"/>
<path d="M518.84 209.264C518.84 208.336 519.448 207.584 520.264 207.04C521.736 207.632 523.032 208.112 523.032 209.424C523.032 210.48 522.216 211.216 521.032 211.216C519.784 211.216 518.84 210.4 518.84 209.264ZM521.72 206.432C520.488 205.952 519.368 205.44 519.368 204.224C519.368 203.232 520.072 202.576 521.016 202.576C522.136 202.576 522.792 203.376 522.792 204.384C522.792 205.136 522.408 205.824 521.72 206.432ZM517.656 209.392C517.656 211.008 519.08 212.192 521 212.192C522.984 212.192 524.296 210.992 524.296 209.472C524.296 208.096 523.432 207.376 522.52 206.848V206.784C523.144 206.304 523.928 205.392 523.928 204.32C523.928 202.736 522.824 201.6 521.048 201.6C519.4 201.6 518.152 202.656 518.152 204.224C518.152 205.296 518.824 206.048 519.576 206.576V206.64C518.616 207.152 517.656 208.064 517.656 209.392ZM525.753 210.8C526.457 211.504 527.465 212.192 529.097 212.192C530.873 212.192 532.537 210.944 532.537 208.736C532.537 206.528 531.113 205.536 529.369 205.536C528.745 205.536 528.281 205.696 527.801 205.952L528.073 202.928H532.025V201.792H526.921L526.585 206.704L527.289 207.152C527.897 206.752 528.329 206.528 529.033 206.528C530.345 206.528 531.209 207.36 531.209 208.768C531.209 210.192 530.217 211.104 528.969 211.104C527.769 211.104 527.001 210.544 526.393 209.936L525.753 210.8ZM536.65 207.936C538.074 207.936 539.034 206.72 539.034 204.608C539.034 202.496 538.074 201.312 536.65 201.312C535.21 201.312 534.266 202.496 534.266 204.608C534.266 206.72 535.21 207.936 536.65 207.936ZM536.65 207.12C535.818 207.12 535.258 206.272 535.258 204.608C535.258 202.928 535.818 202.128 536.65 202.128C537.466 202.128 538.026 202.928 538.026 204.608C538.026 206.272 537.466 207.12 536.65 207.12ZM537.834 212.192L543.626 201.312H542.746L536.954 212.192H537.834ZM543.962 212.192C545.386 212.192 546.346 210.992 546.346 208.864C546.346 206.768 545.386 205.568 543.962 205.568C542.522 205.568 541.578 206.768 541.578 208.864C541.578 210.992 542.522 212.192 543.962 212.192ZM543.962 211.376C543.146 211.376 542.57 210.528 542.57 208.864C542.57 207.2 543.146 206.384 543.962 206.384C544.778 206.384 545.338 207.2 545.338 208.864C545.338 210.528 544.778 211.376 543.962 211.376Z" fill="#252525"/>
<path d="M575.76 305.04C574.496 305.04 573.872 304.208 573.872 302.88C573.872 301.536 574.656 300.64 575.648 300.64C576.944 300.64 577.728 301.696 577.904 303.68C577.216 304.656 576.416 305.04 575.76 305.04ZM572.816 309.12C573.376 309.728 574.192 310.192 575.28 310.192C577.312 310.192 579.168 308.608 579.168 304.512C579.168 301.232 577.664 299.6 575.648 299.6C574.016 299.6 572.64 300.928 572.64 302.88C572.64 304.976 573.776 306.032 575.536 306.032C576.384 306.032 577.296 305.536 577.936 304.72C577.888 307.984 576.672 309.104 575.232 309.104C574.592 309.104 573.968 308.784 573.552 308.288L572.816 309.12ZM582.017 306.128L584.401 302.64C584.689 302.144 584.977 301.696 585.233 301.2H585.297C585.265 301.744 585.217 302.624 585.217 303.168V306.128H582.017ZM587.857 306.128H586.465V299.792H584.993L580.625 306.32V307.184H585.217V310H586.465V307.184H587.857V306.128ZM591.65 305.936C593.074 305.936 594.034 304.72 594.034 302.608C594.034 300.496 593.074 299.312 591.65 299.312C590.21 299.312 589.266 300.496 589.266 302.608C589.266 304.72 590.21 305.936 591.65 305.936ZM591.65 305.12C590.818 305.12 590.258 304.272 590.258 302.608C590.258 300.928 590.818 300.128 591.65 300.128C592.466 300.128 593.026 300.928 593.026 302.608C593.026 304.272 592.466 305.12 591.65 305.12ZM592.834 310.192L598.626 299.312H597.746L591.954 310.192H592.834ZM598.962 310.192C600.386 310.192 601.346 308.992 601.346 306.864C601.346 304.768 600.386 303.568 598.962 303.568C597.522 303.568 596.578 304.768 596.578 306.864C596.578 308.992 597.522 310.192 598.962 310.192ZM598.962 309.376C598.146 309.376 597.57 308.528 597.57 306.864C597.57 305.2 598.146 304.384 598.962 304.384C599.778 304.384 600.338 305.2 600.338 306.864C600.338 308.528 599.778 309.376 598.962 309.376Z" fill="#252525"/>
<rect y="37" width="627" height="5" rx="2.5" fill="#EAEAEA"/>
<rect y="135" width="627" height="5" rx="2.5" fill="#EAEAEA"/>
<rect y="233" width="627" height="5" rx="2.5" fill="#EAEAEA"/>
<rect y="331" width="627" height="5" rx="2.5" fill="#EAEAEA"/>
<rect y="37" width="605" height="5" rx="2.5" fill="#FBA820"/>
<rect y="135" width="579" height="5" rx="2.5" fill="#FBA820"/>
<rect y="233" width="536" height="5" rx="2.5" fill="#FBA820"/>
<rect y="331" width="591" height="5" rx="2.5" fill="#FBA820"/>
</svg>
